<svg xmlns="http://www.w3.org/2000/svg" width="256" height="256" viewBox="0 0 256 256">
  <defs>
    <linearGradient id="bg" x1="42" y1="26" x2="214" y2="230" gradientUnits="userSpaceOnUse">
      <stop offset="0" stop-color="#ffffff"/>
      <stop offset="0.55" stop-color="#f4f7fa"/>
      <stop offset="1" stop-color="#dfe7ef"/>
    </linearGradient>
    <linearGradient id="ink" x1="70" y1="62" x2="188" y2="196" gradientUnits="userSpaceOnUse">
      <stop offset="0" stop-color="#15191f"/>
      <stop offset="1" stop-color="#4b5867"/>
    </linearGradient>
    <linearGradient id="mist" x1="79" y1="72" x2="196" y2="176" gradientUnits="userSpaceOnUse">
      <stop offset="0" stop-color="#8fa3b7" stop-opacity="0.35"/>
      <stop offset="1" stop-color="#60788f" stop-opacity="0.86"/>
    </linearGradient>
    <filter id="shadow" x="-20%" y="-20%" width="140%" height="145%">
      <feDropShadow dx="0" dy="12" stdDeviation="12" flood-color="#111827" flood-opacity="0.18"/>
    </filter>
  </defs>

  <rect x="18" y="18" width="220" height="220" rx="52" fill="url(#bg)"/>
  <path d="M62 77c21-22 59-31 94-16 27 12 45 38 42 66-4 39-42 71-88 68-39-2-68-25-72-57-3-23 8-44 24-61z" fill="#1c2028" opacity="0.08"/>

  <g filter="url(#shadow)">
    <rect x="65" y="67" width="100" height="31" rx="15.5" fill="#ffffff" stroke="#2b313a" stroke-width="5"/>
    <rect x="78" y="103" width="100" height="31" rx="15.5" fill="#ffffff" stroke="#3e4854" stroke-width="5"/>
    <rect x="92" y="139" width="100" height="31" rx="15.5" fill="#ffffff" stroke="#566779" stroke-width="5"/>
    <path d="M89 83h52M103 119h52M117 155h52" stroke="#7b8d9f" stroke-width="5" stroke-linecap="round" opacity="0.65"/>
  </g>

  <path d="M79 190c34-41 77-47 113-90" fill="none" stroke="url(#mist)" stroke-width="13" stroke-linecap="round"/>
  <path d="M91 190c20-20 42-26 68-36" fill="none" stroke="#1d1d1f" stroke-width="6" stroke-linecap="round" opacity="0.88"/>
  <path d="M173 75l29 29-18 18-29-29z" fill="url(#ink)"/>
  <path d="M186 56c6-6 16-6 22 0s6 16 0 22l-18 18-22-22z" fill="#2f3742"/>
  <path d="M64 196c18-3 39-6 55-18-4 17-23 29-55 18z" fill="#1d1d1f" opacity="0.88"/>
  <path d="M55 204c28 14 62 8 82-18" fill="none" stroke="#6c8195" stroke-width="8" stroke-linecap="round"/>
  <circle cx="197" cy="151" r="8" fill="#ffffff" opacity="0.9"/>
  <circle cx="214" cy="133" r="4" fill="#66798b" opacity="0.85"/>
</svg>
