<svg xmlns="http://www.w3.org/2000/svg" width="256" height="256" viewBox="0 0 256 256">
  <defs>
    <linearGradient id="bg" x1="28" y1="24" x2="226" y2="232" gradientUnits="userSpaceOnUse">
      <stop offset="0" stop-color="#ff8a3d"/>
      <stop offset="0.48" stop-color="#c22fe5"/>
      <stop offset="1" stop-color="#2f7cff"/>
    </linearGradient>
    <linearGradient id="glass" x1="62" y1="54" x2="196" y2="202" gradientUnits="userSpaceOnUse">
      <stop offset="0" stop-color="#ffffff" stop-opacity="0.92"/>
      <stop offset="1" stop-color="#ffffff" stop-opacity="0.58"/>
    </linearGradient>
    <linearGradient id="teal" x1="76" y1="108" x2="174" y2="198" gradientUnits="userSpaceOnUse">
      <stop offset="0" stop-color="#4ff5dd"/>
      <stop offset="1" stop-color="#1fc8ff"/>
    </linearGradient>
    <filter id="shadow" x="-20%" y="-20%" width="140%" height="145%">
      <feDropShadow dx="0" dy="12" stdDeviation="12" flood-color="#18002f" flood-opacity="0.28"/>
    </filter>
  </defs>

  <rect x="18" y="18" width="220" height="220" rx="48" fill="url(#bg)"/>
  <path d="M43 64c34-36 89-45 132-22 33 18 51 52 46 87-7 55-59 96-119 88-51-7-86-43-84-89 1-24 10-46 25-64z" fill="#ffffff" opacity="0.13"/>
  <circle cx="190" cy="63" r="24" fill="#ffffff" opacity="0.14"/>
  <circle cx="58" cy="191" r="22" fill="#ffffff" opacity="0.10"/>

  <g filter="url(#shadow)">
    <path d="M75 98c0-26 21-47 47-47s47 21 47 47-21 47-47 47-47-21-47-47z" fill="none" stroke="url(#glass)" stroke-width="18" stroke-linecap="round"/>
    <path d="M122 51c26 0 47 21 47 47" fill="none" stroke="#ffd15c" stroke-width="18" stroke-linecap="round"/>
    <path d="M169 98c0 14-6 27-16 36" fill="none" stroke="#52f4dc" stroke-width="18" stroke-linecap="round"/>
    <circle cx="122" cy="98" r="23" fill="#40125f" opacity="0.34"/>

    <path d="M74 186c31-43 73-52 112-96" fill="none" stroke="#ffffff" stroke-width="17" stroke-linecap="round"/>
    <path d="M83 190c20-21 45-31 75-43" fill="none" stroke="url(#teal)" stroke-width="9" stroke-linecap="round"/>
    <path d="M181 67c7-7 18-7 25 0s7 18 0 25l-22 22-25-25z" fill="#ffffff"/>
    <path d="M160 89l25 25-17 17-25-25z" fill="#341160" opacity="0.82"/>
    <path d="M61 198c27 10 54 5 73-14-8 26-39 38-73 14z" fill="#ffffff" opacity="0.9"/>
  </g>

  <path d="M60 42h38" stroke="#ffffff" stroke-width="8" stroke-linecap="round" opacity="0.56"/>
  <path d="M160 214h36" stroke="#ffffff" stroke-width="8" stroke-linecap="round" opacity="0.36"/>
</svg>
